<svg width="37" height="31" viewBox="0 0 37 31" fill="none" xmlns="http://www.w3.org/2000/svg">
<path fill-rule="evenodd" clip-rule="evenodd" d="M3.42322 0.25989C3.16875 0.783177 2.81647 1.83504 2.65186 2.56284C2.50323 3.22008 2.48299 3.49499 2.48371 4.8484C2.4845 6.41954 2.57205 7.10762 2.91392 8.22768L3.01716 8.56586L2.70406 8.94632C1.59971 10.2881 0.649786 12.365 0.286948 14.2308C-0.244765 16.965 -0.0210187 20.7289 0.821264 23.2204C1.58627 25.4833 3.12603 27.3254 5.23568 28.5015C6.279 29.0832 8.7097 29.9662 10.1416 30.2838C12.6417 30.8381 16.7622 31.1007 20.8272 30.9646C26.0062 30.7913 29.621 29.962 32.0437 28.3913C35.1902 26.3515 36.5696 23.7574 36.9298 19.2028C37.2645 14.9684 36.404 11.5874 34.3198 8.94818L33.9691 8.50417L34.1067 8.05373C34.4405 6.961 34.5048 6.44545 34.5068 4.8484C34.5082 3.6107 34.4824 3.19102 34.3744 2.70173C34.1999 1.91104 33.9304 1.06718 33.6628 0.474342L33.4489 0L32.9666 0.028336C30.3157 0.184184 28.573 0.928435 25.5277 3.20526L25.0774 3.54193L24.6458 3.44326C21.2286 2.6618 16.4871 2.65192 12.8762 3.41864C12.5092 3.49664 12.1457 3.56039 12.0686 3.56039C11.9915 3.56039 11.6412 3.34551 11.2902 3.0829C10.4732 2.47168 9.23209 1.66539 8.44706 1.23591C7.06627 0.480496 5.79045 0.131949 4.02817 0.0286224L3.5493 0.000500887L3.42322 0.25989ZM13.8329 15.1256C17.743 15.6025 19.2375 15.608 22.8695 15.1587C26.2549 14.74 26.8744 14.7277 28.0309 15.0567C29.1012 15.3612 29.9182 15.9319 30.6385 16.878C31.4819 17.9859 31.9129 19.2174 31.9926 20.7476C32.065 22.1385 31.8432 23.3425 31.3051 24.4791C30.6306 25.9038 29.7529 26.7867 28.2859 27.5164C27.1579 28.0776 25.4374 28.5445 23.7008 28.7608C22.625 28.8947 14.3665 28.8947 13.2907 28.7608C11.0119 28.4769 9.01969 27.8317 7.72414 26.9578C7.26652 26.6492 6.55885 25.9353 6.21264 25.433C5.34571 24.1754 4.90833 22.487 4.99892 20.7476C5.07866 19.2174 5.50959 17.9859 6.35303 16.878C7.22076 15.7382 8.32626 15.0865 9.77111 14.863C10.3497 14.7735 11.6185 14.8555 13.8329 15.1256ZM10.7243 17.0363C10.0692 17.2906 9.56449 17.7854 9.13493 18.5945C8.41229 19.9556 8.37629 22.1103 9.05194 23.5557C9.8225 25.2041 11.3209 25.8178 12.5436 24.9859C14.197 23.8607 14.7192 20.6907 13.6015 18.5639C13.2452 17.886 12.5834 17.2222 12.1031 17.0609C11.696 16.9243 11.0431 16.9126 10.7243 17.0363ZM24.8575 17.0624C24.4077 17.2241 23.7294 17.9182 23.39 18.5639C22.9924 19.3205 22.8132 20.099 22.8082 21.0915C22.7897 24.7716 25.6256 26.7205 27.4774 24.3005C28.343 23.1694 28.6614 21.3128 28.2655 19.7052C27.9854 18.5676 27.2822 17.5245 26.5485 17.1578C26.0991 16.9332 25.3362 16.8901 24.8575 17.0624Z" fill="white"/>
</svg>
