<svg width="14" height="28" viewBox="0 0 14 28" fill="none" xmlns="http://www.w3.org/2000/svg">
<path fill-rule="evenodd" clip-rule="evenodd" d="M6.28346 0.0739041C5.36183 0.270094 4.49841 0.949072 4.08927 1.79935C3.82652 2.34532 3.74803 2.68573 3.74803 3.27906C3.74803 4.17742 4.04848 4.88227 4.71216 5.54085C5.37798 6.20161 6.08576 6.49756 7 6.49756C7.91424 6.49756 8.62202 6.20161 9.28784 5.54085C9.95152 4.88227 10.252 4.17742 10.252 3.27906C10.252 2.68573 10.1735 2.34532 9.91073 1.79935C9.27384 0.4758 7.76559 -0.241684 6.28346 0.0739041ZM4.35334 7.43093C3.48131 7.52292 2.80248 7.87439 2.0365 8.63054C1.56932 9.09167 1.47827 9.21495 1.22869 9.72454C1.07398 10.0404 0.919095 10.4189 0.884536 10.5656C0.794583 10.9472 0 16.4876 0 16.7332C0 16.8686 0.0421102 16.9848 0.124016 17.0754C0.192252 17.151 0.756496 17.5232 1.37795 17.9027C1.99941 18.2822 2.5248 18.6094 2.54552 18.6299C2.56624 18.6504 2.8339 20.4089 3.14035 22.5376C3.44681 24.6664 3.73657 26.5279 3.78424 26.6744C3.96454 27.2285 4.501 27.7375 5.08635 27.91C5.49351 28.03 8.50649 28.03 8.91365 27.91C9.50633 27.7353 10.0421 27.2217 10.2196 26.6581C10.2851 26.4504 11.4094 18.9165 11.4094 18.6859C11.4094 18.6638 11.9557 18.3093 12.6233 17.8982C13.2909 17.4871 13.8737 17.0988 13.9185 17.0353C13.9633 16.9718 14 16.8318 14 16.7241C14 16.4829 13.2028 10.9352 13.115 10.5656C13.0801 10.4189 12.9276 10.0423 12.7761 9.72875C12.531 9.22185 12.4416 9.09993 11.9688 8.62907C11.1938 7.85733 10.5373 7.52757 9.58008 7.42923C9.11643 7.38159 9.0838 7.38591 8.56039 7.56553C7.48906 7.93313 6.51028 7.93193 5.4272 7.56176C5.12301 7.45773 4.85017 7.37596 4.82091 7.37995C4.79164 7.38394 4.58125 7.40692 4.35334 7.43093Z" fill="white"/>
</svg>
