<svg width="80" height="90" viewBox="0 0 80 90" fill="none" xmlns="http://www.w3.org/2000/svg">
<path d="M35.5 1.59808C38.2846 -0.00961958 41.7154 -0.00961929 44.5 1.59808L75.3372 19.4019C78.1218 21.0096 79.8372 23.9808 79.8372 27.1962V62.8038C79.8372 66.0192 78.1218 68.9904 75.3372 70.5981L44.5 88.4019C41.7154 90.0096 38.2846 90.0096 35.5 88.4019L4.66283 70.5981C1.87822 68.9904 0.16283 66.0192 0.16283 62.8038V27.1962C0.16283 23.9808 1.87822 21.0096 4.66283 19.4019L35.5 1.59808Z" fill="url(#paint0_radial_841_91)" fill-opacity="0.75"/>
<path d="M44.25 2.03109L75.0872 19.8349C77.7171 21.3533 79.3372 24.1594 79.3372 27.1962V62.8038C79.3372 65.8406 77.7171 68.6467 75.0872 70.1651L44.25 87.9689C41.6201 89.4873 38.3799 89.4873 35.75 87.9689L4.91283 70.1651C2.28292 68.6467 0.66283 65.8406 0.66283 62.8038V27.1962C0.66283 24.1594 2.28292 21.3533 4.91283 19.8349L35.75 2.03109C38.3799 0.512709 41.6201 0.51271 44.25 2.03109Z" stroke="white" stroke-opacity="0.35"/>
<defs>
<radialGradient id="paint0_radial_841_91" cx="0" cy="0" r="1" gradientUnits="userSpaceOnUse" gradientTransform="translate(40 45) rotate(89.6021) scale(101.91)">
<stop stop-opacity="0.4"/>
<stop offset="1" stop-color="#8E8E8E"/>
</radialGradient>
</defs>
</svg>
